<svg width="32" height="32" viewBox="0 0 32 32" fill="none" xmlns="http://www.w3.org/2000/svg">
<path d="M13.3333 6.66667C13.3333 5.95942 13.6142 5.28115 14.1143 4.78105C14.6144 4.28095 15.2927 4 15.9999 4C16.7072 4 17.3854 4.28095 17.8855 4.78105C18.3856 5.28115 18.6666 5.95942 18.6666 6.66667C20.1978 7.3907 21.5031 8.51777 22.4427 9.92707C23.3822 11.3364 23.9205 12.9748 23.9999 14.6667V18.6667C24.1003 19.4956 24.3938 20.2894 24.857 20.9842C25.3202 21.6789 25.94 22.2552 26.6666 22.6667H5.33325C6.05984 22.2552 6.67966 21.6789 7.14283 20.9842C7.60601 20.2894 7.89958 19.4956 7.99992 18.6667V14.6667C8.07933 12.9748 8.61765 11.3364 9.55718 9.92707C10.4967 8.51777 11.802 7.3907 13.3333 6.66667" stroke="#0F172A" stroke-width="1.5" stroke-linecap="round" stroke-linejoin="round"/>
<path d="M12 22.6666V24C12 25.0608 12.4214 26.0782 13.1716 26.8284C13.9217 27.5785 14.9391 28 16 28C17.0609 28 18.0783 27.5785 18.8284 26.8284C19.5786 26.0782 20 25.0608 20 24V22.6666" stroke="#0F172A" stroke-width="1.5" stroke-linecap="round" stroke-linejoin="round"/>
</svg>
