<svg width="32" height="32" viewBox="0 0 32 32" fill="none" xmlns="http://www.w3.org/2000/svg">
<path d="M21.5596 0C24.8024 0 26.4241 0.000529759 27.7031 0.530273C29.4085 1.23667 30.7633 2.59148 31.4697 4.29688C31.9995 5.5759 32 7.19759 32 10.4404V21.5596C32 24.8024 31.9995 26.4241 31.4697 27.7031C30.7633 29.4085 29.4085 30.7633 27.7031 31.4697C26.4241 31.9995 24.8024 32 21.5596 32H10.4404C7.19759 32 5.5759 31.9995 4.29688 31.4697C2.59148 30.7633 1.23667 29.4085 0.530273 27.7031C0.000529759 26.4241 0 24.8024 0 21.5596V10.4404C0 7.19759 0.000529759 5.5759 0.530273 4.29688C1.23667 2.59148 2.59148 1.23667 4.29688 0.530273C5.5759 0.000529759 7.19759 0 10.4404 0H21.5596ZM19.0283 8.86426C19.1961 8.25531 18.5412 7.77792 18.0244 8.06641L17.9229 8.13477L8.9248 15.3037C8.47998 15.6581 8.62472 16.3681 9.17285 16.5195L13.5352 17.7227L12.1289 22.8184C11.9499 23.468 12.7073 23.9678 13.2344 23.5479L22.2324 16.3789C22.6772 16.0245 22.5325 15.3146 21.9844 15.1631L17.6221 13.96L19.0283 8.86426Z" fill="#153885"/>
</svg>
