<svg width="16" height="17" viewBox="0 0 16 17" fill="none" xmlns="http://www.w3.org/2000/svg">
<g clip-path="url(#clip0_181_529)">
<path d="M8.2 9.85C7.97333 9.85 7.78347 9.7732 7.6304 9.6196C7.4768 9.46653 7.4 9.27667 7.4 9.05C7.4 8.82333 7.4768 8.6332 7.6304 8.4796C7.78347 8.32653 7.97333 8.25 8.2 8.25C8.42667 8.25 8.6168 8.32653 8.7704 8.4796C8.92347 8.6332 9 8.82333 9 9.05C9 9.27667 8.92347 9.46653 8.7704 9.6196C8.6168 9.7732 8.42667 9.85 8.2 9.85ZM5 9.85C4.77333 9.85 4.5832 9.7732 4.4296 9.6196C4.27653 9.46653 4.2 9.27667 4.2 9.05C4.2 8.82333 4.27653 8.6332 4.4296 8.4796C4.5832 8.32653 4.77333 8.25 5 8.25C5.22667 8.25 5.4168 8.32653 5.5704 8.4796C5.72347 8.6332 5.8 8.82333 5.8 9.05C5.8 9.27667 5.72347 9.46653 5.5704 9.6196C5.4168 9.7732 5.22667 9.85 5 9.85ZM11.4 9.85C11.1733 9.85 10.9835 9.7732 10.8304 9.6196C10.6768 9.46653 10.6 9.27667 10.6 9.05C10.6 8.82333 10.6768 8.6332 10.8304 8.4796C10.9835 8.32653 11.1733 8.25 11.4 8.25C11.6267 8.25 11.8165 8.32653 11.9696 8.4796C12.1232 8.6332 12.2 8.82333 12.2 9.05C12.2 9.27667 12.1232 9.46653 11.9696 9.6196C11.8165 9.7732 11.6267 9.85 11.4 9.85ZM8.2 13.05C7.97333 13.05 7.78347 12.9732 7.6304 12.8196C7.4768 12.6665 7.4 12.4767 7.4 12.25C7.4 12.0233 7.4768 11.8335 7.6304 11.6804C7.78347 11.5268 7.97333 11.45 8.2 11.45C8.42667 11.45 8.6168 11.5268 8.7704 11.6804C8.92347 11.8335 9 12.0233 9 12.25C9 12.4767 8.92347 12.6665 8.7704 12.8196C8.6168 12.9732 8.42667 13.05 8.2 13.05ZM5 13.05C4.77333 13.05 4.5832 12.9732 4.4296 12.8196C4.27653 12.6665 4.2 12.4767 4.2 12.25C4.2 12.0233 4.27653 11.8335 4.4296 11.6804C4.5832 11.5268 4.77333 11.45 5 11.45C5.22667 11.45 5.4168 11.5268 5.5704 11.6804C5.72347 11.8335 5.8 12.0233 5.8 12.25C5.8 12.4767 5.72347 12.6665 5.5704 12.8196C5.4168 12.9732 5.22667 13.05 5 13.05ZM11.4 13.05C11.1733 13.05 10.9835 12.9732 10.8304 12.8196C10.6768 12.6665 10.6 12.4767 10.6 12.25C10.6 12.0233 10.6768 11.8335 10.8304 11.6804C10.9835 11.5268 11.1733 11.45 11.4 11.45C11.6267 11.45 11.8165 11.5268 11.9696 11.6804C12.1232 11.8335 12.2 12.0233 12.2 12.25C12.2 12.4767 12.1232 12.6665 11.9696 12.8196C11.8165 12.9732 11.6267 13.05 11.4 13.05ZM2.6 16.25C2.16 16.25 1.7832 16.0935 1.4696 15.7804C1.15653 15.4668 1 15.09 1 14.65V3.45C1 3.01 1.15653 2.63347 1.4696 2.3204C1.7832 2.0068 2.16 1.85 2.6 1.85H3.4V0.25H5V1.85H11.4V0.25H13V1.85H13.8C14.24 1.85 14.6168 2.0068 14.9304 2.3204C15.2435 2.63347 15.4 3.01 15.4 3.45V14.65C15.4 15.09 15.2435 15.4668 14.9304 15.7804C14.6168 16.0935 14.24 16.25 13.8 16.25H2.6ZM2.6 14.65H13.8V6.65H2.6V14.65Z" fill="#0F172A"/>
</g>
<defs>
<clipPath id="clip0_181_529">
<rect width="16" height="16" fill="white" transform="translate(0 0.25)"/>
</clipPath>
</defs>
</svg>
