<svg width="24" height="24" viewBox="0 0 24 24" fill="none" xmlns="http://www.w3.org/2000/svg">
<path fill-rule="evenodd" clip-rule="evenodd" d="M13.5 3.75C13.5 3.45163 13.6185 3.16548 13.8295 2.9545C14.0405 2.74353 14.3266 2.625 14.625 2.625H20.25C20.5484 2.625 20.8345 2.74353 21.0455 2.9545C21.2565 3.16548 21.375 3.45163 21.375 3.75V9.375C21.375 9.67337 21.2565 9.95952 21.0455 10.1705C20.8345 10.3815 20.5484 10.5 20.25 10.5C19.9516 10.5 19.6655 10.3815 19.4545 10.1705C19.2435 9.95952 19.125 9.67337 19.125 9.375V4.875H14.625C14.3266 4.875 14.0405 4.75647 13.8295 4.5455C13.6185 4.33452 13.5 4.04837 13.5 3.75Z" fill="white"/>
<path fill-rule="evenodd" clip-rule="evenodd" d="M21.0443 2.95499C21.255 3.16592 21.3733 3.45186 21.3733 3.74999C21.3733 4.04811 21.255 4.33405 21.0443 4.54499L14.2943 11.295C14.081 11.4937 13.799 11.6019 13.5075 11.5967C13.216 11.5916 12.938 11.4735 12.7318 11.2674C12.5257 11.0613 12.4077 10.7832 12.4025 10.4918C12.3974 10.2003 12.5056 9.91825 12.7043 9.70499L19.4543 2.95499C19.6652 2.74431 19.9512 2.62598 20.2493 2.62598C20.5474 2.62598 20.8333 2.74431 21.0443 2.95499Z" fill="white"/>
<path fill-rule="evenodd" clip-rule="evenodd" d="M4.875 7.875H10.5C10.7984 7.875 11.0845 7.75647 11.2955 7.5455C11.5065 7.33452 11.625 7.04837 11.625 6.75C11.625 6.45163 11.5065 6.16548 11.2955 5.9545C11.0845 5.74353 10.7984 5.625 10.5 5.625H4.5C4.00272 5.625 3.52581 5.82254 3.17417 6.17417C2.82254 6.52581 2.625 7.00272 2.625 7.5V19.5C2.625 19.9973 2.82254 20.4742 3.17417 20.8258C3.52581 21.1775 4.00272 21.375 4.5 21.375H16.5C16.9973 21.375 17.4742 21.1775 17.8258 20.8258C18.1775 20.4742 18.375 19.9973 18.375 19.5V13.5C18.375 13.2016 18.2565 12.9155 18.0455 12.7045C17.8345 12.4935 17.5484 12.375 17.25 12.375C16.9516 12.375 16.6655 12.4935 16.4545 12.7045C16.2435 12.9155 16.125 13.2016 16.125 13.5V19.125H4.875V7.875Z" fill="white"/>
</svg>
