<svg width="24" height="24" viewBox="0 0 24 24" fill="none" xmlns="http://www.w3.org/2000/svg">
<path d="M8.93818 4.58769C9.29413 4.58769 9.58271 4.29903 9.58271 3.94297V2.64472C9.58271 2.28866 9.29413 2 8.93818 2C8.58223 2 8.29365 2.28866 8.29365 2.64472V3.94297C8.29365 4.29903 8.58223 4.58769 8.93818 4.58769ZM3.09091 6.94767L1.96689 6.29852C1.65859 6.12041 1.26439 6.22614 1.08646 6.53449C0.90848 6.84288 1.0141 7.2372 1.32235 7.41518L2.44637 8.06433C2.75394 8.24201 3.14844 8.13744 3.3268 7.82836C3.50478 7.51997 3.39916 7.12566 3.09091 6.94767ZM2.44637 14.0738L1.32235 14.7229C1.0141 14.9009 0.90848 15.2952 1.08646 15.6036C1.26534 15.9135 1.66009 16.0168 1.96689 15.8395L3.09091 15.1904C3.39916 15.0124 3.50478 14.6181 3.3268 14.3097C3.14883 14.0014 2.75472 13.8956 2.44637 14.0738ZM15.4299 8.06433L16.554 7.41518C16.8622 7.23715 16.9678 6.84288 16.7899 6.53449C16.6119 6.22614 16.2178 6.12041 15.9094 6.29852L14.7854 6.94767C14.4771 7.1257 14.3715 7.51997 14.5495 7.82836C14.7284 8.13826 15.1231 8.24158 15.4299 8.06433ZM18.1405 11.9843C17.4027 10.1605 15.6129 8.95464 13.644 8.96316C12.8372 7.16615 11.0317 5.91126 8.93814 5.91126C6.09498 5.91126 3.78193 8.22504 3.78193 11.069C3.78193 12.8936 4.73446 14.4993 6.16777 15.4165C4.6395 17.8315 6.37715 20.9977 9.23617 20.9977C19.3773 20.9872 18.8224 21.0237 18.999 20.9688C21.2517 20.7147 23 18.8035 23 16.4847C23 13.8368 20.738 11.7808 18.1405 11.9843ZM5.07099 11.0691C5.07099 8.93608 6.80581 7.20075 8.93818 7.20075C10.3761 7.20075 11.6325 7.99031 12.2988 9.15842C10.2621 9.75539 8.84799 11.6153 8.8253 13.7493C8.18507 13.8195 7.5814 14.0588 7.06148 14.4499C5.87532 13.7885 5.07099 12.5212 5.07099 11.0691ZM18.7552 19.6972C18.5256 19.7159 12.6767 19.7051 9.23617 19.7083C7.11089 19.7083 6.07521 17.0731 7.65651 15.6287C8.13114 15.1952 8.76317 14.9645 9.45187 15.0271C9.86733 15.0646 10.2059 14.7051 10.1485 14.2956C9.84972 12.1624 11.5011 10.2524 13.6586 10.2524C15.2546 10.2524 16.6613 11.327 17.0794 12.8657C17.1688 13.1945 17.4985 13.3968 17.8319 13.328C19.8408 12.9124 21.7109 14.4486 21.7109 16.4847C21.7109 18.1505 20.4126 19.5616 18.7552 19.6972Z" fill="#153885" stroke="#153885" stroke-width="0.6"/>
</svg>
