<svg width="24" height="24" viewBox="0 0 24 24" fill="none" xmlns="http://www.w3.org/2000/svg">
<path fill-rule="evenodd" clip-rule="evenodd" d="M10.4573 1.0431C11.1795 1.70062 11.002 2.7026 10.6757 3.42812L10.6751 3.4295C10.1938 4.49466 9.92975 5.6609 9.93955 6.89377L9.93958 6.89698C9.9591 11.4633 13.8891 15.4071 18.7592 15.6C19.4767 15.6289 20.1631 15.5808 20.8288 15.4654C21.2708 15.3874 21.703 15.3739 22.0917 15.4617C22.4856 15.5506 22.8912 15.76 23.1466 16.1647C23.4038 16.5721 23.4158 17.03 23.319 17.4246C23.2242 17.8109 23.0168 18.1859 22.75 18.5358C20.4304 21.6086 16.5786 23.5435 12.2912 23.3635C6.21144 23.1046 1.08215 18.3897 0.656906 12.5073C0.268556 7.29386 3.46514 2.77574 8.07246 0.894483C8.81129 0.591501 9.78315 0.429354 10.4573 1.0431ZM9.19372 2.38153C9.08762 2.39503 8.93546 2.43192 8.73553 2.514L8.734 2.51463C4.75496 4.13935 2.07543 7.9976 2.40214 12.3782L2.40229 12.3803C2.75816 17.3095 7.10456 21.3908 12.3646 21.615C16.0776 21.7709 19.3807 20.0955 21.3545 17.4798L21.3574 17.4761C21.4583 17.3438 21.5231 17.2354 21.5637 17.1521C21.4614 17.1482 21.3193 17.1558 21.1319 17.189L21.1292 17.1894C20.3425 17.3259 19.5325 17.3826 18.6893 17.3486C12.957 17.1212 8.21433 12.4793 8.18959 6.90607C8.17795 5.41047 8.49925 3.99512 9.08006 2.7095C9.14294 2.56958 9.17653 2.4609 9.19372 2.38153Z" fill="#AAAAAA"/>
</svg>
