<svg width="24" height="24" viewBox="0 0 24 24" fill="none" xmlns="http://www.w3.org/2000/svg">
<g clip-path="url(#clip0_2014_44)">
<mask id="mask0_2014_44" style="mask-type:luminance" maskUnits="userSpaceOnUse" x="0" y="0" width="24" height="24">
<path d="M24 0H0V24H24V0Z" fill="white"/>
</mask>
<g mask="url(#mask0_2014_44)">
<path d="M12.0001 15C13.6569 15 15 13.6569 15 12C15 10.3431 13.6569 9 12.0001 9C10.3432 9 9.00006 10.3431 9.00006 12C9.00006 13.6569 10.3432 15 12.0001 15Z" fill="#64748B"/>
<path d="M23.6319 10.9786C20.7918 7.54658 16.4927 4.24292 12.0001 4.24292C7.50672 4.24292 3.20652 7.54889 0.368276 10.9786C-0.122677 11.5716 -0.122677 12.4325 0.368276 13.0256C1.08184 13.8879 2.57779 15.5525 4.57578 17.0067C9.60765 20.6699 14.3815 20.678 19.4244 17.0067C21.4224 15.5525 22.9184 13.8879 23.6319 13.0256C24.1215 12.4337 24.1241 11.5736 23.6319 10.9786ZM12.0001 6.82931C14.8525 6.82931 17.1729 9.14967 17.1729 12.0021C17.1729 14.8545 14.8525 17.1749 12.0001 17.1749C9.14769 17.1749 6.82732 14.8545 6.82732 12.0021C6.82732 9.14967 9.14769 6.82931 12.0001 6.82931Z" fill="#64748B"/>
</g>
</g>
<defs>
<clipPath id="clip0_2014_44">
<rect width="24" height="24" fill="white"/>
</clipPath>
</defs>
</svg>
