<svg width="16" height="17" viewBox="0 0 16 17" fill="none" xmlns="http://www.w3.org/2000/svg">
<path fill-rule="evenodd" clip-rule="evenodd" d="M12.5661 6.93405C12.8359 5.86249 12.6168 4.88998 12.0838 4.11149C11.494 3.25024 10.5421 2.65521 9.51813 2.38943C8.49257 2.12323 7.34964 2.17546 6.36253 2.66741C5.41492 3.13966 4.64814 3.99946 4.27622 5.2795C2.31164 5.7448 1.32708 7.39649 1.52495 8.96626C1.62715 9.77699 2.04495 10.5512 2.78 11.0988C3.51461 11.6461 4.53283 11.9437 5.80469 11.8729C6.52434 11.8329 8.09646 11.8534 9.49313 11.8716C10.1891 11.8807 10.8415 11.8892 11.3231 11.8894C12.3041 11.9442 13.0825 11.7063 13.6327 11.2542C14.1854 10.8001 14.4603 10.1679 14.496 9.53495C14.5594 8.41232 13.8596 7.21299 12.5661 6.93405Z" fill="#0F172A"/>
<path fill-rule="evenodd" clip-rule="evenodd" d="M5.78051 12.4945C6.02021 12.6316 6.10337 12.937 5.96626 13.1767L5.22608 14.4707C5.08897 14.7104 4.7835 14.7936 4.5438 14.6564C4.30411 14.5193 4.22095 14.2139 4.35806 13.9742L5.09824 12.6802C5.23535 12.4405 5.54082 12.3573 5.78051 12.4945Z" fill="#0F172A"/>
<path fill-rule="evenodd" clip-rule="evenodd" d="M9.51391 12.5611C9.75361 12.6982 9.83677 13.0037 9.69966 13.2434L8.95948 14.5373C8.82236 14.777 8.5169 14.8602 8.2772 14.7231C8.03751 14.586 7.95434 14.2805 8.09146 14.0408L8.83164 12.7468C8.96875 12.5072 9.27421 12.424 9.51391 12.5611Z" fill="#0F172A"/>
<path fill-rule="evenodd" clip-rule="evenodd" d="M7.25971 13.3328C7.50064 13.4678 7.58657 13.7725 7.45163 14.0134L7.08743 14.6637C6.95249 14.9046 6.6478 14.9906 6.40686 14.8556C6.16593 14.7207 6.08001 14.416 6.21494 14.1751L6.57915 13.5248C6.71408 13.2838 7.01878 13.1979 7.25971 13.3328Z" fill="#0F172A"/>
<path fill-rule="evenodd" clip-rule="evenodd" d="M11.1772 13.4129C11.4181 13.5479 11.504 13.8526 11.3691 14.0935L11.0049 14.7438C10.87 14.9847 10.5653 15.0707 10.3243 14.9357C10.0834 14.8008 9.99749 14.4961 10.1324 14.2552L10.4966 13.6048C10.6316 13.3639 10.9363 13.278 11.1772 13.4129Z" fill="#0F172A"/>
</svg>
