<svg width="44" height="44" viewBox="0 0 44 44" fill="none" xmlns="http://www.w3.org/2000/svg">
<path d="M38.5 34.8333H9.16667V5.49996C9.16667 5.01373 8.97351 4.54741 8.6297 4.2036C8.28588 3.85978 7.81956 3.66663 7.33333 3.66663C6.8471 3.66663 6.38079 3.85978 6.03697 4.2036C5.69315 4.54741 5.5 5.01373 5.5 5.49996V36.6666C5.5 37.1529 5.69315 37.6192 6.03697 37.963C6.38079 38.3068 6.8471 38.5 7.33333 38.5H38.5C38.9862 38.5 39.4525 38.3068 39.7964 37.963C40.1402 37.6192 40.3333 37.1529 40.3333 36.6666C40.3333 36.1804 40.1402 35.7141 39.7964 35.3703C39.4525 35.0264 38.9862 34.8333 38.5 34.8333Z" fill="white"/>
<path d="M12.834 20.1666V29.3333C12.834 29.8195 13.0271 30.2858 13.371 30.6297C13.7148 30.9735 14.1811 31.1666 14.6673 31.1666C15.1535 31.1666 15.6199 30.9735 15.9637 30.6297C16.3075 30.2858 16.5007 29.8195 16.5007 29.3333V20.1666C16.5007 19.6804 16.3075 19.2141 15.9637 18.8703C15.6199 18.5264 15.1535 18.3333 14.6673 18.3333C14.1811 18.3333 13.7148 18.5264 13.371 18.8703C13.0271 19.2141 12.834 19.6804 12.834 20.1666ZM20.1673 11V29.3333C20.1673 29.8195 20.3605 30.2858 20.7043 30.6297C21.0481 30.9735 21.5144 31.1666 22.0007 31.1666C22.4869 31.1666 22.9532 30.9735 23.297 30.6297C23.6408 30.2858 23.834 29.8195 23.834 29.3333V11C23.834 10.5137 23.6408 10.0474 23.297 9.7036C22.9532 9.35978 22.4869 9.16663 22.0007 9.16663C21.5144 9.16663 21.0481 9.35978 20.7043 9.7036C20.3605 10.0474 20.1673 10.5137 20.1673 11ZM27.5007 14.6666V29.3333C27.5007 29.8195 27.6938 30.2858 28.0376 30.6297C28.3814 30.9735 28.8478 31.1666 29.334 31.1666C29.8202 31.1666 30.2865 30.9735 30.6303 30.6297C30.9742 30.2858 31.1673 29.8195 31.1673 29.3333V14.6666C31.1673 14.1804 30.9742 13.7141 30.6303 13.3703C30.2865 13.0264 29.8202 12.8333 29.334 12.8333C28.8478 12.8333 28.3814 13.0264 28.0376 13.3703C27.6938 13.7141 27.5007 14.1804 27.5007 14.6666ZM34.834 5.49996V29.3333C34.834 29.8195 35.0271 30.2858 35.371 30.6297C35.7148 30.9735 36.1811 31.1666 36.6673 31.1666C37.1535 31.1666 37.6199 30.9735 37.9637 30.6297C38.3075 30.2858 38.5007 29.8195 38.5007 29.3333V5.49996C38.5007 5.01373 38.3075 4.54741 37.9637 4.2036C37.6199 3.85978 37.1535 3.66663 36.6673 3.66663C36.1811 3.66663 35.7148 3.85978 35.371 4.2036C35.0271 4.54741 34.834 5.01373 34.834 5.49996Z" fill="white"/>
</svg>
