<svg width="28" height="28" viewBox="0 0 28 28" fill="none" xmlns="http://www.w3.org/2000/svg">
<path fill-rule="evenodd" clip-rule="evenodd" d="M14.0002 1.45837C14.4834 1.45837 14.8752 1.85012 14.8752 2.33337V4.35561C14.8752 4.83886 14.4834 5.23061 14.0002 5.23061C13.5169 5.23061 13.1252 4.83886 13.1252 4.35561V2.33337C13.1252 1.85012 13.5169 1.45837 14.0002 1.45837ZM22.7855 5.21467C23.1273 5.55638 23.1273 6.1104 22.7855 6.45211L21.4342 7.8035C21.0924 8.14521 20.5384 8.14521 20.1967 7.8035C19.855 7.46179 19.855 6.90777 20.1967 6.56606L21.5481 5.21467C21.8898 4.87296 22.4438 4.87296 22.7855 5.21467ZM5.21478 5.21467C5.55649 4.87296 6.11051 4.87296 6.45221 5.21467L7.8036 6.56606C8.14531 6.90777 8.14531 7.46179 7.8036 7.8035C7.46189 8.14521 6.90787 8.14521 6.56617 7.8035L5.21478 6.45211C4.87307 6.1104 4.87307 5.55638 5.21478 5.21467ZM1.4585 14.0001C1.4585 13.5168 1.85025 13.1251 2.3335 13.1251H4.27794C4.76119 13.1251 5.15294 13.5168 5.15294 14.0001C5.15294 14.4833 4.76119 14.8751 4.27794 14.8751H2.3335C1.85025 14.8751 1.4585 14.4833 1.4585 14.0001ZM22.8474 14.0001C22.8474 13.5168 23.2391 13.1251 23.7224 13.1251H25.6668C26.1501 13.1251 26.5418 13.5168 26.5418 14.0001C26.5418 14.4833 26.1501 14.8751 25.6668 14.8751H23.7224C23.2391 14.8751 22.8474 14.4833 22.8474 14.0001ZM7.8036 20.1966C8.14531 20.5383 8.14531 21.0923 7.8036 21.4341L6.35499 22.8827C6.01328 23.2244 5.45926 23.2244 5.11756 22.8827C4.77585 22.541 4.77585 21.9869 5.11755 21.6452L6.56617 20.1966C6.90787 19.8549 7.46189 19.8549 7.8036 20.1966ZM20.1967 20.1966C20.5384 19.8549 21.0924 19.8549 21.4342 20.1966L22.7855 21.548C23.1272 21.8897 23.1272 22.4437 22.7855 22.7854C22.4438 23.1271 21.8898 23.1271 21.5481 22.7854L20.1967 21.4341C19.855 21.0923 19.855 20.5383 20.1967 20.1966ZM14.0002 22.8473C14.4834 22.8473 14.8752 23.239 14.8752 23.7223V25.6667C14.8752 26.15 14.4834 26.5417 14.0002 26.5417C13.5169 26.5417 13.1252 26.15 13.1252 25.6667V23.7223C13.1252 23.239 13.5169 22.8473 14.0002 22.8473Z" fill="#F6B338"/>
<path fill-rule="evenodd" clip-rule="evenodd" d="M7.29199 14C7.29199 10.295 10.2954 7.29163 14.0003 7.29163C17.7052 7.29163 20.7087 10.295 20.7087 14C20.7087 17.7049 17.7052 20.7083 14.0003 20.7083C10.2954 20.7083 7.29199 17.7049 7.29199 14Z" fill="#F6B338"/>
</svg>
