<svg width="24" height="24" viewBox="0 0 24 24" fill="none" xmlns="http://www.w3.org/2000/svg">
<path d="M10.3377 3.33435C6.47315 3.33435 3.34033 6.46821 3.34033 10.334C3.34033 14.1999 6.47315 17.3337 10.3377 17.3337C14.2022 17.3337 17.335 14.1999 17.335 10.334C17.3308 6.46996 14.2005 3.33856 10.3377 3.33435ZM10.3377 4.00099C11.3519 4.00179 12.3511 4.24659 13.2509 4.71474C14.1507 5.18289 14.9247 5.86066 15.5077 6.69086L14.6747 7.52416C14.472 7.40144 14.2399 7.3358 14.003 7.33417C13.2669 7.33417 12.6701 7.9311 12.6701 8.66744C12.6713 8.9047 12.7366 9.13723 12.8591 9.34041L10.6772 11.523C10.4746 11.3994 10.2418 11.334 10.0045 11.334C9.76713 11.334 9.53437 11.3994 9.33173 11.523L7.8163 10.007C7.9388 9.80387 8.00408 9.57134 8.00523 9.33408C8.00615 8.59919 7.41137 8.00272 6.67674 8.0018C6.06917 8.00105 5.53833 8.41216 5.38689 9.00076H4.15069C4.78158 6.08643 7.35681 4.00536 10.3377 4.00099ZM14.6694 8.66744C14.6694 9.03563 14.371 9.33408 14.003 9.33408C13.6349 9.33408 13.3365 9.03563 13.3365 8.66744C13.3365 8.29925 13.6349 8.0008 14.003 8.0008C14.371 8.0008 14.6694 8.29925 14.6694 8.66744ZM10.6709 12.6673C10.6709 13.0354 10.3725 13.3339 10.0045 13.3339C9.63641 13.3339 9.33806 13.0354 9.33806 12.6673C9.33806 12.2991 9.63641 12.0006 10.0045 12.0006C10.3725 12.0006 10.6709 12.2991 10.6709 12.6673ZM7.33882 9.33408C7.33882 9.70227 7.04047 10.0007 6.6724 10.0007C6.30433 10.0007 6.00599 9.70227 6.00599 9.33408C6.00599 8.96588 6.30433 8.66744 6.6724 8.66744C7.04047 8.66744 7.33882 8.96588 7.33882 9.33408ZM13.4138 15.8715C12.4728 16.3942 11.414 16.668 10.3377 16.667C6.84359 16.6694 4.00912 13.8379 4.00675 10.3427C4.00658 10.1171 4.01849 9.89163 4.0424 9.66735H5.38689C5.53837 10.2542 6.06651 10.665 6.6724 10.6673C6.90959 10.6662 7.14204 10.6008 7.34515 10.4783L8.86058 11.9942C8.73808 12.1974 8.6728 12.43 8.67165 12.6672C8.67165 13.4036 9.26838 14.0005 10.0045 14.0005C10.7406 14.0005 11.3373 13.4036 11.3373 12.6672C11.3362 12.43 11.2709 12.1974 11.1484 11.9942L13.3302 9.81168C13.5333 9.93421 13.7658 9.99952 14.003 10.0007C14.7391 10.0007 15.3358 9.40374 15.3358 8.6674C15.3346 8.43014 15.2694 8.1976 15.1469 7.99443L15.8733 7.26813C17.5691 10.3233 16.4679 14.1752 13.4138 15.8715Z" fill="#153885" stroke="#153885" stroke-width="0.5"/>
<path d="M18.6679 5.33425C19.2738 5.33196 19.802 4.92119 19.9534 4.3343H22V3.66766H19.9534C19.802 3.08077 19.2738 2.67 18.6679 2.66771C17.9318 2.66771 17.3351 3.26464 17.3351 4.00098C17.3363 4.23824 17.4015 4.47077 17.524 4.67395L16.9386 5.25959C14.1374 1.60888 8.908 0.920995 5.2585 3.72316C1.60901 6.52532 0.921354 11.7565 3.72259 15.4072C6.36675 18.8531 11.2137 19.6891 14.8587 17.3277L15.8643 18.3337L16.3355 18.805L19.0178 21.4882C19.7 22.1706 20.806 22.1706 21.4882 21.4882C22.1704 20.8058 22.1704 19.6994 21.4882 19.017L18.8059 16.3337L18.3347 15.8624L17.3291 14.8565C19.1142 12.1059 19.1142 8.56215 17.3291 5.81156L17.9955 5.14493C18.1985 5.2675 18.4308 5.33292 18.6679 5.33425ZM18.6679 3.33434C19.036 3.33434 19.3343 3.63279 19.3343 4.00098C19.3343 4.36917 19.036 4.66762 18.6679 4.66762C18.2999 4.66762 18.0015 4.36917 18.0015 4.00098C18.0015 3.63279 18.2999 3.33434 18.6679 3.33434ZM21.017 19.4883C21.4438 19.9056 21.4516 20.59 21.0344 21.0169C20.6172 21.4438 19.9331 21.4516 19.5063 21.0342C19.5005 21.0285 19.4947 21.0227 19.489 21.0169L16.8066 18.3337L18.3347 16.8051L21.017 19.4883ZM17.8636 16.3337L16.3355 17.8623L15.4132 16.9397C15.4601 16.9037 15.5041 16.8641 15.5504 16.8271C15.5968 16.7901 15.6504 16.7457 15.7001 16.7041C15.773 16.6427 15.845 16.5807 15.9156 16.5171C15.952 16.4837 15.9866 16.4504 16.0223 16.4171C16.1588 16.2891 16.2912 16.1567 16.4191 16.0201C16.4524 15.9844 16.4858 15.9498 16.5191 15.9134C16.5826 15.8426 16.6449 15.7707 16.706 15.6978C16.7477 15.6485 16.7887 15.5986 16.829 15.5481C16.8656 15.5021 16.9053 15.4581 16.9412 15.4111L17.8636 16.3337ZM16.5714 14.7855C16.4664 14.9321 16.3581 15.0758 16.2438 15.2141C16.2105 15.2545 16.1749 15.2935 16.1406 15.3331C16.0389 15.4515 15.9335 15.5667 15.8247 15.6784C15.7774 15.7273 15.7293 15.7754 15.6804 15.8228C15.5688 15.9319 15.4537 16.0373 15.3352 16.1388C15.2955 16.1721 15.2566 16.2084 15.2162 16.2421C15.078 16.3564 14.9343 16.4647 14.7877 16.5697C11.3384 19.0348 6.54439 18.236 4.08012 14.7855C1.61584 11.335 2.41441 6.5394 5.86377 4.07431C9.31314 1.60921 14.1071 2.40801 16.5714 5.85856C18.4782 8.52852 18.4782 12.1155 16.5714 14.7855Z" fill="#153885" stroke="#153885" stroke-width="0.5"/>
</svg>
