<svg width="16" height="17" viewBox="0 0 16 17" fill="none" xmlns="http://www.w3.org/2000/svg">
<g clip-path="url(#clip0_31_1014)">
<path fill-rule="evenodd" clip-rule="evenodd" d="M7.99992 1.81567C8.27606 1.81567 8.49992 2.03953 8.49992 2.31567V3.47124C8.49992 3.74738 8.27606 3.97124 7.99992 3.97124C7.72378 3.97124 7.49992 3.74738 7.49992 3.47124V2.31567C7.49992 2.03953 7.72378 1.81567 7.99992 1.81567ZM13.0201 3.96213C13.2154 4.15739 13.2154 4.47397 13.0201 4.66924L12.2479 5.44146C12.0527 5.63672 11.7361 5.63672 11.5408 5.44146C11.3455 5.2462 11.3455 4.92961 11.5408 4.73435L12.313 3.96213C12.5083 3.76687 12.8249 3.76687 13.0201 3.96213ZM2.9797 3.96213C3.17496 3.76687 3.49154 3.76687 3.68681 3.96213L4.45903 4.73435C4.65429 4.92961 4.65429 5.2462 4.45903 5.44146C4.26377 5.63672 3.94718 5.63672 3.75192 5.44146L2.9797 4.66924C2.78444 4.47397 2.78444 4.15739 2.9797 3.96213ZM0.833252 8.98235C0.833252 8.70621 1.05711 8.48235 1.33325 8.48235H2.44436C2.72051 8.48235 2.94436 8.70621 2.94436 8.98235C2.94436 9.25849 2.72051 9.48235 2.44436 9.48235H1.33325C1.05711 9.48235 0.833252 9.25849 0.833252 8.98235ZM13.0555 8.98235C13.0555 8.70621 13.2793 8.48235 13.5555 8.48235H14.6666C14.9427 8.48235 15.1666 8.70621 15.1666 8.98235C15.1666 9.25849 14.9427 9.48235 14.6666 9.48235H13.5555C13.2793 9.48235 13.0555 9.25849 13.0555 8.98235ZM4.45903 12.5232C4.65429 12.7185 4.65429 13.0351 4.45903 13.2303L3.63125 14.0581C3.43599 14.2534 3.11941 14.2534 2.92414 14.0581C2.72888 13.8629 2.72888 13.5463 2.92414 13.351L3.75192 12.5232C3.94718 12.328 4.26377 12.328 4.45903 12.5232ZM11.5408 12.5232C11.7361 12.328 12.0527 12.328 12.2479 12.5232L13.0201 13.2955C13.2154 13.4907 13.2154 13.8073 13.0201 14.0026C12.8249 14.1978 12.5083 14.1978 12.313 14.0026L11.5408 13.2303C11.3455 13.0351 11.3455 12.7185 11.5408 12.5232ZM7.99992 14.0379C8.27606 14.0379 8.49992 14.2618 8.49992 14.5379V15.649C8.49992 15.9251 8.27606 16.149 7.99992 16.149C7.72378 16.149 7.49992 15.9251 7.49992 15.649V14.5379C7.49992 14.2618 7.72378 14.0379 7.99992 14.0379Z" fill="#0F172A"/>
<path fill-rule="evenodd" clip-rule="evenodd" d="M4.16675 8.98226C4.16675 6.86517 5.88299 5.14893 8.00008 5.14893C10.1172 5.14893 11.8334 6.86517 11.8334 8.98226C11.8334 11.0994 10.1172 12.8156 8.00008 12.8156C5.88299 12.8156 4.16675 11.0994 4.16675 8.98226Z" fill="#0F172A"/>
</g>
<defs>
<clipPath id="clip0_31_1014">
<rect width="16" height="16" fill="white" transform="translate(0 0.9823)"/>
</clipPath>
</defs>
</svg>
