<svg width="16" height="17" viewBox="0 0 16 17" fill="none" xmlns="http://www.w3.org/2000/svg">
<path d="M8 10.9823C9.10457 10.9823 10 10.0869 10 8.9823C10 7.87773 9.10457 6.9823 8 6.9823C6.89543 6.9823 6 7.87773 6 8.9823C6 10.0869 6.89543 10.9823 8 10.9823Z" fill="#0F172A"/>
<path d="M15.7546 8.30138C13.8612 6.01335 10.995 3.81091 8.00003 3.81091C5.00444 3.81091 2.13764 6.01489 0.245476 8.30138C-0.0818254 8.69673 -0.0818254 9.27066 0.245476 9.66601C0.721187 10.2409 1.71849 11.3506 3.05048 12.3201C6.40506 14.7622 9.58761 14.7676 12.9496 12.3201C14.2816 11.3506 15.2789 10.2409 15.7546 9.66601C16.0809 9.27143 16.0826 8.69802 15.7546 8.30138ZM8.00003 5.53517C9.90164 5.53517 11.4486 7.08208 11.4486 8.9837C11.4486 10.8853 9.90164 12.4322 8.00003 12.4322C6.09842 12.4322 4.55151 10.8853 4.55151 8.9837C4.55151 7.08208 6.09842 5.53517 8.00003 5.53517Z" fill="#0F172A"/>
</svg>
