<svg width="185" height="185" viewBox="0 0 185 185" fill="none" xmlns="http://www.w3.org/2000/svg">
<g clip-path="url(#clip0_1_3154)">
<mask id="mask0_1_3154" style="mask-type:luminance" maskUnits="userSpaceOnUse" x="0" y="0" width="185" height="185">
<path d="M185 0H0V185H185V0Z" fill="white"/>
</mask>
<g mask="url(#mask0_1_3154)">
<path d="M160.672 124.002C160.672 106.982 146.057 93.1067 128.112 93.1067C110.167 93.1067 95.5525 106.889 95.5525 124.002V154.897H128.482C146.242 154.619 160.672 140.929 160.672 124.002Z" fill="#EAEAEA" fill-opacity="0.39"/>
<path d="M140.138 122.521C140.138 112.715 135.698 103.927 128.76 97.9148C128.853 96.9898 128.945 96.0648 128.945 95.1398C128.945 77.2882 114.331 62.7657 96.385 62.7657C78.44 62.7657 63.8251 77.2882 63.8251 95.1398C63.8251 95.4182 63.825 95.7882 63.9185 96.0648C59.8475 94.0307 55.2225 92.9207 50.4125 92.9207C33.3 92.9207 19.425 106.796 19.425 123.908C19.425 140.651 32.7451 154.248 49.3951 154.802V154.896H109.15V154.802C126.263 154.063 140.138 139.911 140.138 122.521Z" fill="#F7F7F7" fill-opacity="0.48"/>
<path d="M163.651 59.2866C162.857 57.9289 163.369 56.2373 164.646 55.4905L170.636 51.9898C171.994 51.1963 173.685 51.7068 174.432 52.9854C175.225 54.3422 174.714 56.0346 173.436 56.7814L167.447 60.2821C166.169 61.0289 164.444 60.6434 163.651 59.2866ZM143.314 41.1732C141.909 40.6017 141.215 38.8645 141.913 37.4923L144.651 31.1771C145.222 29.7718 146.96 29.0786 148.332 29.7766C149.737 30.3472 150.431 32.0845 149.733 33.4574L146.995 39.771C146.423 41.1764 144.766 41.8237 143.314 41.1732ZM116.477 39.5682C114.985 39.8423 113.465 38.7519 113.315 37.2196L112.226 30.4241C111.951 28.9314 113.042 27.4121 114.574 27.2614C116.066 26.9872 117.585 28.0781 117.736 29.61L118.826 36.4055C119.101 37.8977 118.052 39.3347 116.477 39.5682ZM92.754 52.1887C91.7096 53.3348 89.9319 53.4096 88.8325 52.4451L83.6817 47.8485C82.5356 46.8041 82.4604 45.0256 83.4249 43.9262C84.4693 42.7801 86.2475 42.7061 87.3469 43.6707L92.4972 48.2664C93.7236 49.2649 93.7984 51.0426 92.754 52.1887ZM81.8221 77.1133C81.6303 78.6182 80.253 79.7447 78.7942 79.6319L71.9494 78.9194C70.4445 78.7276 69.3176 77.3494 69.43 75.892C69.6218 74.387 70.9991 73.2606 72.4569 73.3718L79.3027 74.0859C80.8875 74.2311 82.0139 75.6084 81.8221 77.1133ZM87.624 103.722C88.417 105.078 87.9062 106.771 86.6284 107.518L80.6389 111.018C79.2813 111.812 77.5897 111.301 76.8429 110.023C76.0494 108.665 76.5606 106.974 77.8384 106.227L83.8279 102.726C85.1855 101.933 86.8305 102.364 87.624 103.722ZM107.96 121.835C109.366 122.406 110.06 124.144 109.361 125.515L106.624 131.83C106.052 133.236 104.315 133.93 102.943 133.231C101.538 132.66 100.844 130.923 101.541 129.55L104.28 123.236C104.851 121.831 106.508 121.184 107.96 121.835ZM135.042 124.542C136.553 124.195 138.065 125.132 138.333 126.69L139.81 133.433C140.158 134.945 139.22 136.456 137.662 136.725C136.151 137.072 134.638 136.134 134.371 134.577L132.894 127.832C132.547 126.322 133.531 124.89 135.042 124.542ZM158.521 110.819C159.565 109.673 161.342 109.598 162.442 110.562L167.593 115.16C168.739 116.203 168.814 117.982 167.849 119.081C166.805 120.227 165.027 120.301 163.927 119.337L158.777 114.741C157.631 113.697 157.476 111.966 158.521 110.819ZM169.453 85.8949C169.644 84.3891 171.021 83.2627 172.48 83.3755L179.325 84.088C180.83 84.2798 181.957 85.6579 181.844 87.1154C181.653 88.6203 180.276 89.7476 178.817 89.6356L171.972 88.9215C170.467 88.7297 169.261 87.3998 169.453 85.8949Z" fill="#ECA914"/>
<path d="M91.2976 81.5432C91.2893 100.496 106.648 115.868 125.6 115.876C144.554 115.885 159.924 100.527 159.933 81.5737V81.5432C159.935 62.5899 144.574 47.2238 125.621 47.2211C106.667 47.2174 91.3004 62.5788 91.2976 81.5321V81.5432Z" fill="#ECA914"/>
</g>
</g>
<defs>
<clipPath id="clip0_1_3154">
<rect width="185" height="185" fill="white"/>
</clipPath>
</defs>
</svg>
