<svg width="44" height="44" viewBox="0 0 44 44" fill="none" xmlns="http://www.w3.org/2000/svg">
<g clip-path="url(#clip0_1_3283)">
<path d="M6.61916 14.732C5.98605 13.7015 5.64927 12.5061 5.64505 11.2747C5.63912 9.52213 6.31855 7.87187 7.55845 6.62784C8.80455 5.37745 10.4631 4.68892 12.2285 4.68892C14.79 4.68892 17.1381 6.19266 18.2105 8.51993C18.2866 8.6855 18.2939 8.87451 18.2307 9.04543C18.1675 9.21635 18.0391 9.35521 17.8736 9.43148C17.7081 9.50775 17.5191 9.5152 17.3481 9.45219C17.1771 9.38919 17.0382 9.26087 16.9617 9.09545C16.1131 7.2539 14.2552 6.06401 12.2285 6.06401C10.8312 6.06401 9.5186 6.60902 8.53238 7.59859C7.55244 8.58189 7.01533 9.88582 7.02005 11.2701C7.02341 12.2489 7.2899 13.1972 7.79074 14.0124C7.88476 14.1677 7.91353 14.3539 7.87077 14.5303C7.82802 14.7068 7.71721 14.8591 7.56253 14.9542C7.40784 15.0492 7.22185 15.0792 7.04513 15.0376C6.8684 14.996 6.71531 14.8862 6.61924 14.7322L6.61916 14.732ZM31.9087 31.7235C31.8784 31.5437 31.778 31.3833 31.6294 31.2775C31.4809 31.1718 31.2965 31.1293 31.1167 31.1596C30.756 31.2201 30.3909 31.2505 30.0252 31.2505H26.9735C26.7912 31.2505 26.6163 31.3229 26.4874 31.4518C26.3585 31.5808 26.286 31.7556 26.286 31.938C26.286 32.1203 26.3585 32.2952 26.4874 32.4241C26.6163 32.5531 26.7912 32.6255 26.9735 32.6255H30.0252C30.4672 32.6255 30.9111 32.5884 31.3448 32.5156C31.5246 32.4853 31.685 32.3849 31.7907 32.2364C31.8965 32.0878 31.9389 31.9034 31.9087 31.7236V31.7235ZM6.23588 32.6255H12.6767C12.8591 32.6255 13.0339 32.5531 13.1629 32.4241C13.2918 32.2952 13.3642 32.1203 13.3642 31.938C13.3642 31.7556 13.2918 31.5808 13.1629 31.4518C13.0339 31.3229 12.8591 31.2505 12.6767 31.2505H6.24129C3.72822 31.2307 1.68368 29.1701 1.68368 26.6569C1.68368 24.1436 3.72822 22.083 6.24129 22.0632C6.34544 22.0624 6.44804 22.0379 6.54136 21.9917C6.63467 21.9454 6.71625 21.8786 6.77994 21.7961C6.84362 21.7137 6.88775 21.6179 6.90898 21.516C6.93021 21.414 6.92799 21.3086 6.90249 21.2076C6.61177 20.0548 6.81604 18.7828 7.46298 17.7178C8.08834 16.6884 9.06073 15.9531 10.1309 15.7004C11.5577 15.3634 13.1361 15.7821 14.25 16.7931C14.345 16.8794 14.4623 16.9374 14.5886 16.9605C14.7149 16.9835 14.8452 16.9708 14.9646 16.9236C15.084 16.8764 15.1878 16.7968 15.2643 16.6937C15.3408 16.5905 15.3868 16.468 15.3972 16.3401C15.7076 12.5409 19.0534 9.6696 22.8556 9.93773C26.6579 10.2065 29.5663 13.5209 29.3388 17.3259C29.3332 17.4195 29.3468 17.5132 29.3788 17.6014C29.4107 17.6895 29.4604 17.7701 29.5247 17.8384C29.5889 17.9066 29.6665 17.961 29.7526 17.9981C29.8386 18.0353 29.9314 18.0544 30.0251 18.0544C30.6314 18.0544 31.2324 18.1376 31.8116 18.3018C31.9864 18.3497 32.1731 18.3266 32.331 18.2375C32.4889 18.1484 32.6052 18.0006 32.6547 17.8262C32.7041 17.6518 32.6826 17.4649 32.595 17.3062C32.5073 17.1475 32.3605 17.0299 32.1865 16.9789C31.7087 16.8436 31.2192 16.7537 30.7245 16.7102C30.6809 14.7494 29.9569 12.8829 28.6491 11.3926C27.1869 9.72632 25.1639 8.72257 22.9525 8.56625C20.7416 8.40976 18.5971 9.119 16.9151 10.5629C15.5347 11.7479 14.5963 13.3155 14.2043 15.0609C12.8865 14.2819 11.2903 14.0137 9.81483 14.3624C8.38861 14.6991 7.10307 15.662 6.28778 17.0041C5.59598 18.143 5.29701 19.471 5.42892 20.7488C2.54142 21.164 0.308594 23.6635 0.308594 26.657C0.308594 29.9224 2.96509 32.5999 6.23579 32.6257L6.23588 32.6255ZM26.7928 15.8385C26.8983 15.8386 27.0024 15.8144 27.0971 15.7678C27.1917 15.7211 27.2743 15.6534 27.3386 15.5697C27.4028 15.486 27.4469 15.3886 27.4675 15.2852C27.4881 15.1817 27.4846 15.0749 27.4573 14.973C26.9026 12.9033 25.1051 11.4728 22.8777 11.3289C22.4998 11.3048 22.1717 11.5918 22.1472 11.9706C22.1355 12.1525 22.1965 12.3317 22.3168 12.4687C22.4371 12.6056 22.607 12.6892 22.7889 12.701C24.4435 12.808 25.7233 13.8149 26.129 15.3288C26.1682 15.475 26.2544 15.6041 26.3744 15.6963C26.4944 15.7885 26.6414 15.8385 26.7927 15.8386L26.7928 15.8385ZM25.746 31.7622C25.8802 32.1703 25.8033 32.5969 25.5353 32.9326L17.3771 43.149C17.1918 43.3811 16.9214 43.5055 16.6434 43.5055C16.4989 43.5055 16.3524 43.4719 16.2146 43.4023C15.8117 43.1987 15.612 42.7522 15.7288 42.3162L17.8945 34.2336L14.7433 33.3892C14.3283 33.2781 14.0133 32.9801 13.8792 32.572C13.745 32.164 13.8218 31.7374 14.0899 31.4016L22.2481 21.1851H22.2482C22.53 20.8324 23.0079 20.7285 23.4107 20.932C23.8133 21.1352 24.0132 21.5818 23.8962 22.018L21.7305 30.1006L24.8817 30.945C25.2968 31.0563 25.6117 31.3541 25.7458 31.7622H25.746ZM24.3418 32.2238L21.2542 31.3965C20.9321 31.3102 20.6626 31.1033 20.4955 30.8138C20.3283 30.5244 20.2839 30.1875 20.3702 29.8653L22.0335 23.6576L15.2834 32.1105L18.3709 32.9379C18.5297 32.98 18.6784 33.0532 18.8087 33.1532C18.9389 33.2533 19.048 33.3781 19.1297 33.5206C19.2122 33.6626 19.2658 33.8195 19.2873 33.9823C19.3088 34.1451 19.2978 34.3105 19.2549 34.469L17.5916 40.6768L24.3417 32.2238H24.3418ZM43.6907 27.718C43.6907 31.1708 40.8817 33.9799 37.4289 33.9799C33.9761 33.9799 31.167 31.1708 31.167 27.718C31.1662 26.8566 31.3435 26.0042 31.6879 25.2146C32.0322 24.425 32.5362 23.7151 33.1681 23.1296V5.63501C33.1681 3.28565 35.0795 1.37423 37.4289 1.37423C39.7782 1.37423 41.6897 3.28556 41.6897 5.63501V23.1297C42.3216 23.7152 42.8256 24.4251 43.1699 25.2147C43.5143 26.0043 43.6916 26.8566 43.6908 27.7181L43.6907 27.718ZM34.5431 6.16206H40.3147V5.63492C40.3147 4.0437 39.0202 2.74914 37.4289 2.74914C35.8376 2.74914 34.5431 4.0437 34.5431 5.63492V6.16206ZM42.3157 27.718C42.3157 26.2667 41.6762 24.8996 40.5611 23.9672C40.484 23.9027 40.4219 23.822 40.3793 23.7309C40.3367 23.6397 40.3146 23.5404 40.3146 23.4398V17.292H39.4654C39.2831 17.292 39.1082 17.2196 38.9793 17.0906C38.8503 16.9617 38.7779 16.7868 38.7779 16.6045C38.7779 16.4222 38.8503 16.2473 38.9793 16.1184C39.1082 15.9894 39.2831 15.917 39.4654 15.917H40.3146V13.8617H39.4654C39.2831 13.8617 39.1082 13.7893 38.9793 13.6604C38.8503 13.5314 38.7779 13.3566 38.7779 13.1742C38.7779 12.9919 38.8503 12.817 38.9793 12.6881C39.1082 12.5592 39.2831 12.4867 39.4654 12.4867H40.3146V10.4314H39.4654C39.2831 10.4314 39.1082 10.359 38.9793 10.2301C38.8503 10.1011 38.7779 9.92627 38.7779 9.74394C38.7779 9.5616 38.8503 9.38673 38.9793 9.2578C39.1082 9.12887 39.2831 9.05644 39.4654 9.05644H40.3146V7.53706H34.543V23.4398C34.543 23.6435 34.4528 23.8366 34.2965 23.9672C33.1814 24.8995 32.5419 26.2666 32.5419 27.718C32.5419 30.4126 34.7342 32.6049 37.4288 32.6049C40.1234 32.6049 42.3156 30.4126 42.3156 27.718H42.3157ZM40.4748 27.718C40.4748 29.3975 39.1084 30.7639 37.4289 30.7639C35.7493 30.7639 34.383 29.3976 34.383 27.718C34.383 26.275 35.392 25.0641 36.7413 24.7514V20.071C36.7413 19.8886 36.8137 19.7138 36.9426 19.5848C37.0716 19.4559 37.2464 19.3835 37.4288 19.3835C37.6111 19.3835 37.786 19.4559 37.9149 19.5848C38.0438 19.7138 38.1163 19.8886 38.1163 20.071V24.7514C39.4657 25.064 40.4747 26.275 40.4747 27.718H40.4748ZM39.0998 27.718C39.0998 26.7967 38.3502 26.0472 37.4289 26.0472C36.5075 26.0472 35.758 26.7968 35.758 27.718C35.758 28.6393 36.5075 29.3889 37.4289 29.3889C38.3502 29.3889 39.0998 28.6394 39.0998 27.718ZM7.41107 35.3884L6.29569 37.3203C6.20452 37.4783 6.17982 37.6659 6.22701 37.842C6.27421 38.0182 6.38944 38.1683 6.54736 38.2595C6.70527 38.3507 6.89293 38.3754 7.06906 38.3282C7.24519 38.281 7.39536 38.1658 7.48652 38.0078L8.60191 36.0759C8.69164 35.9181 8.7153 35.7311 8.66773 35.5559C8.62017 35.3807 8.50523 35.2315 8.34801 35.1407C8.19079 35.0499 8.00404 35.025 7.82853 35.0714C7.65301 35.1178 7.50289 35.2318 7.41107 35.3884ZM2.54546 35.3884L1.43008 37.3203C1.33891 37.4783 1.31421 37.6659 1.3614 37.842C1.4086 38.0182 1.52383 38.1683 1.68175 38.2595C1.83966 38.3507 2.02732 38.3754 2.20345 38.3282C2.37958 38.281 2.52975 38.1658 2.62091 38.0078L3.7363 36.0759C3.82603 35.9181 3.84969 35.7311 3.80212 35.5559C3.75456 35.3807 3.63962 35.2315 3.4824 35.1407C3.32518 35.0499 3.13843 35.025 2.96292 35.0714C2.7874 35.1178 2.63728 35.2318 2.54546 35.3884ZM3.81596 39.9535C3.65806 39.8623 3.47041 39.8376 3.29429 39.8848C3.11817 39.932 2.96801 40.0472 2.87684 40.2051L1.43008 42.7109C1.33891 42.8689 1.31421 43.0565 1.3614 43.2326C1.4086 43.4088 1.52383 43.5589 1.68175 43.6501C1.83966 43.7413 2.02732 43.766 2.20345 43.7188C2.37958 43.6716 2.52975 43.5564 2.62091 43.3984L4.06767 40.8926C4.15884 40.7347 4.18354 40.547 4.13635 40.3709C4.08916 40.1948 3.97386 40.0446 3.81596 39.9535ZM12.2766 35.3884L11.1611 37.3203C11.07 37.4783 11.0453 37.6659 11.0925 37.842C11.1396 38.0182 11.2549 38.1683 11.4128 38.2595C11.5707 38.3507 11.7584 38.3754 11.9345 38.3282C12.1106 38.281 12.2608 38.1658 12.352 38.0078L13.4674 36.0759C13.5572 35.9181 13.5808 35.7311 13.5333 35.5559C13.4857 35.3807 13.3708 35.2315 13.2135 35.1407C13.0563 35.0499 12.8696 35.025 12.694 35.0714C12.5185 35.1178 12.3685 35.2318 12.2767 35.3884H12.2766ZM26.5375 38.2595C26.6157 38.3046 26.702 38.334 26.7915 38.3458C26.881 38.3576 26.972 38.3516 27.0592 38.3283C27.1465 38.3049 27.2282 38.2646 27.2998 38.2096C27.3715 38.1546 27.4316 38.086 27.4767 38.0078L28.5921 36.0759C28.6818 35.9181 28.7055 35.7311 28.6579 35.5559C28.6103 35.3807 28.4954 35.2315 28.3382 35.1407C28.181 35.0499 27.9942 35.025 27.8187 35.0714C27.6432 35.1178 27.4932 35.2318 27.4013 35.3884L26.286 37.3203C26.1948 37.4782 26.1701 37.6659 26.2173 37.842C26.2645 38.0181 26.3797 38.1683 26.5376 38.2595H26.5375ZM31.403 38.2595C31.4812 38.3046 31.5675 38.334 31.657 38.3458C31.7466 38.3576 31.8375 38.3516 31.9248 38.3283C32.012 38.3049 32.0937 38.2646 32.1654 38.2096C32.237 38.1546 32.2971 38.086 32.3422 38.0078L33.4576 36.0759C33.5473 35.9181 33.571 35.7311 33.5234 35.5559C33.4759 35.3807 33.3609 35.2315 33.2037 35.1407C33.0465 35.0499 32.8597 35.025 32.6842 35.0714C32.5087 35.1178 32.3587 35.2318 32.2669 35.3884L31.1515 37.3203C31.0603 37.4782 31.0356 37.6659 31.0828 37.842C31.13 38.0181 31.2452 38.1683 31.4031 38.2595H31.403ZM33.5373 39.9535C33.3794 39.8623 33.1917 39.8376 33.0156 39.8848C32.8395 39.932 32.6893 40.0472 32.5981 40.2051L31.1514 42.7109C31.0602 42.8689 31.0355 43.0565 31.0827 43.2326C31.1299 43.4088 31.2451 43.5589 31.4031 43.6501C31.561 43.7413 31.7486 43.766 31.9248 43.7188C32.1009 43.6716 32.2511 43.5564 32.3422 43.3984L33.789 40.8926C33.8801 40.7347 33.9049 40.547 33.8577 40.3709C33.8105 40.1948 33.6952 40.0446 33.5373 39.9535ZM28.6718 39.9535C28.5138 39.8623 28.3262 39.8376 28.1501 39.8848C27.974 39.932 27.8238 40.0472 27.7326 40.2051L26.2859 42.7109C26.2407 42.7891 26.2114 42.8754 26.1996 42.965C26.1879 43.0545 26.1938 43.1454 26.2172 43.2326C26.2406 43.3199 26.2809 43.4016 26.3358 43.4732C26.3908 43.5449 26.4593 43.605 26.5375 43.6501C26.6157 43.6952 26.702 43.7245 26.7916 43.7363C26.8811 43.7481 26.972 43.7421 27.0592 43.7188C27.1465 43.6954 27.2282 43.6551 27.2998 43.6001C27.3715 43.5452 27.4316 43.4766 27.4767 43.3984L28.9235 40.8926C29.0146 40.7347 29.0393 40.547 28.9921 40.3709C28.945 40.1948 28.8297 40.0446 28.6718 39.9535H28.6718ZM13.547 39.9535C13.3891 39.8623 13.2015 39.8376 13.0253 39.8848C12.8492 39.932 12.6991 40.0472 12.6079 40.2051L11.161 42.7109C11.0699 42.8689 11.0452 43.0565 11.0924 43.2326C11.1396 43.4088 11.2548 43.5589 11.4127 43.6501C11.5706 43.7413 11.7583 43.766 11.9344 43.7188C12.1105 43.6716 12.2607 43.5564 12.3519 43.3984L13.7987 40.8926C13.8899 40.7347 13.9146 40.547 13.8674 40.3709C13.8202 40.1948 13.705 40.0446 13.5471 39.9535H13.547ZM23.8062 39.9535C23.6483 39.8623 23.4607 39.8376 23.2846 39.8848C23.1084 39.932 22.9583 40.0472 22.8671 40.2051L21.4203 42.7109C21.3751 42.7891 21.3458 42.8754 21.334 42.965C21.3223 43.0545 21.3282 43.1454 21.3516 43.2326C21.375 43.3199 21.4153 43.4016 21.4702 43.4732C21.5252 43.5449 21.5937 43.605 21.6719 43.6501C21.7501 43.6952 21.8364 43.7245 21.9259 43.7363C22.0155 43.7481 22.1064 43.7421 22.1936 43.7188C22.2808 43.6954 22.3626 43.6551 22.4342 43.6001C22.5058 43.5452 22.566 43.4766 22.6111 43.3984L24.0579 40.8926C24.1491 40.7347 24.1738 40.547 24.1266 40.3709C24.0794 40.1948 23.9642 40.0446 23.8063 39.9535H23.8062ZM8.6814 39.9535C8.52349 39.8623 8.33584 39.8376 8.15972 39.8848C7.98361 39.932 7.83344 40.0472 7.74227 40.2051L6.29552 42.7109C6.20435 42.8689 6.17964 43.0565 6.22684 43.2326C6.27404 43.4088 6.38927 43.5589 6.54718 43.6501C6.7051 43.7413 6.89276 43.766 7.06889 43.7188C7.24502 43.6716 7.39518 43.5564 7.48635 43.3984L8.93311 40.8926C9.02427 40.7347 9.04898 40.547 9.00179 40.3709C8.9546 40.1948 8.8393 40.0446 8.6814 39.9535ZM19.656 7.6719C19.7766 7.67188 19.8949 7.64008 19.9992 7.57969L21.5156 6.70424C21.6722 6.61243 21.7861 6.46239 21.8325 6.28687C21.8789 6.11136 21.854 5.92461 21.7633 5.76739C21.6725 5.61017 21.5232 5.49523 21.348 5.44766C21.1728 5.4001 20.9859 5.42376 20.8281 5.51349L19.3117 6.38894C19.1805 6.46462 19.078 6.58149 19.0201 6.72139C18.9622 6.8613 18.9521 7.01642 18.9913 7.16266C19.0306 7.3089 19.117 7.4381 19.2373 7.53018C19.3575 7.62226 19.5046 7.67208 19.656 7.6719ZM12.2284 3.38379C12.4107 3.38379 12.5856 3.31136 12.7145 3.18242C12.8434 3.05349 12.9159 2.87863 12.9159 2.69629V0.945312C12.9159 0.762976 12.8434 0.588108 12.7145 0.459177C12.5856 0.330245 12.4107 0.257813 12.2284 0.257812C12.046 0.257813 11.8712 0.330245 11.7422 0.459177C11.6133 0.588108 11.5409 0.762976 11.5409 0.945312V2.69629C11.5409 2.87863 11.6133 3.05349 11.7422 3.18242C11.8712 3.31136 12.046 3.38379 12.2284 3.38379ZM16.1727 4.44065C16.2508 4.48582 16.3372 4.51515 16.4267 4.52696C16.5162 4.53876 16.6072 4.53281 16.6944 4.50944C16.7816 4.48607 16.8634 4.44575 16.935 4.39077C17.0066 4.33579 17.0667 4.26724 17.1119 4.18902L17.9873 2.67266C18.077 2.51484 18.1007 2.32793 18.0531 2.15272C18.0056 1.97752 17.8906 1.82824 17.7334 1.73747C17.5762 1.64669 17.3894 1.62179 17.2139 1.66819C17.0384 1.7146 16.8884 1.82854 16.7966 1.98516L15.9211 3.50152C15.83 3.65943 15.8052 3.84708 15.8524 4.0232C15.8996 4.19932 16.0148 4.34948 16.1727 4.44065ZM4.45766 14.9648L2.94129 15.8403C2.8631 15.8854 2.79458 15.9455 2.73962 16.0171C2.68466 16.0888 2.64435 16.1705 2.62099 16.2577C2.59763 16.3449 2.59167 16.4359 2.60346 16.5254C2.61525 16.6149 2.64456 16.7012 2.68971 16.7794C2.73485 16.8576 2.79496 16.9261 2.86659 16.9811C2.93822 17.0361 3.01998 17.0764 3.10719 17.0997C3.1944 17.1231 3.28535 17.129 3.37487 17.1173C3.46438 17.1055 3.55069 17.0762 3.62887 17.031L5.14524 16.1556C5.30186 16.0637 5.4158 15.9137 5.46221 15.7382C5.50861 15.5627 5.48371 15.3759 5.39293 15.2187C5.30216 15.0615 5.15288 14.9466 4.97767 14.899C4.80247 14.8514 4.61548 14.8751 4.45766 14.9648ZM1.90153 11.9597H3.65251C3.83484 11.9597 4.00971 11.8872 4.13864 11.7583C4.26757 11.6294 4.34001 11.4545 4.34001 11.2722C4.34001 11.0898 4.26757 10.915 4.13864 10.786C4.00971 10.6571 3.83484 10.5847 3.65251 10.5847H1.90153C1.7192 10.5847 1.54433 10.6571 1.4154 10.786C1.28646 10.915 1.21403 11.0898 1.21403 11.2722C1.21403 11.4545 1.28646 11.6294 1.4154 11.7583C1.54433 11.8872 1.7192 11.9597 1.90153 11.9597ZM7.34507 4.18894C7.3902 4.26715 7.45029 4.3357 7.52192 4.39068C7.59356 4.44566 7.67532 4.48599 7.76254 4.50935C7.84976 4.53272 7.94073 4.53867 8.03025 4.52687C8.11978 4.51507 8.2061 4.48574 8.28428 4.44056C8.44218 4.34939 8.5574 4.19923 8.60459 4.02311C8.65178 3.84699 8.62707 3.65934 8.53591 3.50144L7.66046 1.98507C7.56764 1.83048 7.4178 1.71854 7.24323 1.67337C7.06866 1.6282 6.88334 1.65341 6.72718 1.74357C6.57102 1.83373 6.45653 1.98162 6.40837 2.15539C6.36021 2.32916 6.38224 2.51489 6.46971 2.67257L7.34507 4.18894ZM2.94138 6.70416L4.45774 7.5796C4.53593 7.62478 4.62225 7.65411 4.71177 7.66591C4.80129 7.67771 4.89226 7.67176 4.97948 7.64839C5.06671 7.62502 5.14847 7.5847 5.2201 7.52972C5.29173 7.47474 5.35183 7.40619 5.39695 7.32798C5.48812 7.17007 5.51282 6.98242 5.46563 6.8063C5.41845 6.63018 5.30323 6.48002 5.14533 6.38885L3.62896 5.51341C3.47114 5.42368 3.28423 5.40001 3.10903 5.44758C2.93383 5.49515 2.78455 5.61008 2.69377 5.7673C2.603 5.92453 2.57809 6.11127 2.6245 6.28679C2.6709 6.4623 2.78476 6.61234 2.94138 6.70416Z" fill="white" stroke="white" stroke-width="0.6"/>
</g>
<defs>
<clipPath id="clip0_1_3283">
<rect width="44" height="44" fill="white"/>
</clipPath>
</defs>
</svg>
